<svg id="Calque_1" data-name="Calque 1" xmlns="http://www.w3.org/2000/svg" viewBox="0 0 216.85 351.23"><defs><style>.cls-1{stroke:#000;stroke-miterlimit:10;stroke-width:17px;}</style></defs><path class="cls-1" d="M130.85,167.6q0-32.73,23.94-56.68T212,87q32.25,0,56.44,23.7t24.19,55.95a75.13,75.13,0,0,1-10.51,38.85A82.83,82.83,0,0,1,253,234.55a101.25,101.25,0,0,1,42.51,36.16A92.83,92.83,0,0,1,312.13,324q0,40.56-29.32,68.9t-69.87,28.34q-40.56,0-70.61-29.07T112.28,323q0-28.83,15.64-51.79t42.51-36.16A75.24,75.24,0,0,1,141.36,207,76.11,76.11,0,0,1,130.85,167.6ZM136.23,322q0,30.78,22.72,53t53.5,22.23q31.26,0,53.51-21.26t22.23-52q0-32.25-22.48-54.73T210.5,246.75q-30.3,0-52.28,22.48T136.23,322ZM154.3,169.06a53.4,53.4,0,0,0,16.86,39.82Q188,225.26,211,225.25q23.46,0,40.56-16.61t17.1-40.07q0-24.43-16.61-41t-41-16.61q-23.46,0-40.07,17.59T154.3,169.06Z" transform="translate(-103.78 -78.48)"/><path d="M258.5,322a47,47,0,0,1-.86,8.94,19.17,19.17,0,1,0-19.17,29.18,46.3,46.3,0,1,1,20-38.12Z" transform="translate(-103.78 -78.48)"/></svg>