<?xml version="1.0" encoding="utf-8"?>
<!-- Generator: Adobe Illustrator 25.2.3, SVG Export Plug-In . SVG Version: 6.00 Build 0)  -->
<svg version="1.1" id="Calque_1" xmlns="http://www.w3.org/2000/svg" xmlns:xlink="http://www.w3.org/1999/xlink" x="0px" y="0px"
	 viewBox="0 0 216.9 351.2" style="enable-background:new 0 0 216.9 351.2;" xml:space="preserve">
<style type="text/css">
	.st0{fill:#FFFFFF;stroke:#FFFFFF;stroke-width:17;stroke-miterlimit:10;}
	.st1{fill:#FFFFFF;}
</style>
<path class="st0" d="M27.1,89.1c0-21.8,8-40.7,23.9-56.7S86,8.5,108.2,8.5c21.5,0,40.3,7.9,56.4,23.7s24.2,34.4,24.2,55.9
	c0.1,13.7-3.5,27.1-10.5,38.9c-7.1,12-17.1,22-29.1,29.1c17.3,7.8,32,20.4,42.5,36.2c10.9,15.6,16.7,34.2,16.6,53.3
	c0,27-9.8,50-29.3,68.9c-19.5,18.9-42.8,28.3-69.9,28.3c-27,0-50.6-9.7-70.6-29.1c-20-19.4-30.1-42.4-30.1-69.2
	c0-19.2,5.2-36.5,15.6-51.8c10.4-15.3,24.6-27.4,42.5-36.2c-12.1-6.5-22.1-16.2-29.1-28C30.6,116.6,26.9,103,27.1,89.1z M32.4,243.5
	c0,20.5,7.6,38.2,22.7,53s33,22.2,53.5,22.2c20.8,0,38.7-7.1,53.5-21.3c14.8-14.2,22.2-31.5,22.2-52c0-21.5-7.5-39.7-22.5-54.7
	c-15-15-33.4-22.5-55.2-22.5c-20.2,0-37.6,7.5-52.3,22.5S32.5,223.3,32.4,243.5z M50.5,90.6c-0.2,15.1,5.9,29.5,16.9,39.8
	c11.2,10.9,24.5,16.4,39.8,16.4c15.6,0,29.2-5.5,40.6-16.6c11.4-11.1,17.1-24.4,17.1-40.1c0-16.3-5.5-30-16.6-41
	c-11.1-11-24.7-16.6-41-16.6c-15.6,0-29,5.9-40.1,17.6C56.1,61.8,50.6,75.3,50.5,90.6z"/>
<path class="st1" d="M154.7,243.5c0,3-0.3,6-0.9,8.9c-5.7-9-17.5-11.6-26.4-6c-9,5.7-11.6,17.5-6,26.4c3,4.7,7.8,7.8,13.2,8.7
	c-21,14.5-49.9,9.2-64.4-11.8c-14.5-21-9.2-49.9,11.8-64.4s49.9-9.2,64.4,11.8C151.8,225,154.7,234.1,154.7,243.5L154.7,243.5z"/>
</svg>
